:FULLY-SPECIFIED
:FORCE-ALL-JOINTS-BE-3DOF
:DEGREES
95
root -3.2253 16.9228 -11.836 0.658065 -7.06095 1.00528
lfemur -8.41253 -7.81659 -23.9941
ltibia 43.7694 0 0
lfoot 2.16301 -2.0444 -0.6861
ltoes -2.38197 0 0
rfemur -17.261 10.9928 17.2928
rtibia 23.5614 0 0
rfoot -6.88744 4.55628 0.213327
rtoes -8.82358 0 0
lowerback 7.81879 -0.905389 -0.845611
upperback 0.227474 -1.15863 2.8512
thorax -4.01381 -0.539492 3.5862
lowerneck -16.4471 -2.53318 -9.61524
upperneck 22.7907 -1.68037 3.02578
head 10.1157 -1.2596 2.44912
lclavicle -9.33792e-15 3.65761e-15 2.11889e-31
lhumerus -29.1642 11.916 82.6377
lradius 34.8603 0 0
lwrist -1.54505 0 0
lhand -17.5382 29.4158 -0.0154709
lfingers 7.12502 0 0
lthumb 8.71591 59.2143 -0.0151809
rclavicle -9.33792e-15 3.65761e-15 2.11889e-31
rhumerus -40.4691 -15.3412 -71.9578
rradius 34.5244 0 0
rwrist 6.89951 0 0
rhand -15.3538 13.0864 0.00248823
rfingers 7.12502 0 0
rthumb 10.8234 -16.6146 0.00242258
96
root -3.23454 16.9337 -11.6025 0.559353 -6.68055 0.641214
lfemur -9.48494 -7.50551 -23.2703
ltibia 45.3015 0 0
lfoot 3.90142 -1.5854 -0.864684
ltoes 2.72571 0 0
rfemur -16.2359 10.637 17.7565
rtibia 23.8202 0 0
rfoot -7.4386 5.25701 0.197037
rtoes -7.10256 0 0
lowerback 8.01185 -0.92759 -0.408362
upperback 0.266836 -1.14442 2.93315
thorax -4.08022 -0.539047 3.43542
lowerneck -16.3377 -2.44374 -9.35744
upperneck 22.7262 -1.60382 2.89258
head 10.0628 -1.21345 2.36945
lclavicle 7.66811e-15 -1.41535e-14 -7.1648e-31
lhumerus -29.3763 11.4861 82.8811
lradius 34.7971 0 0
lwrist -1.2668 0 0
lhand -17.6229 27.9602 -0.0102034
lfingers 7.12502 0 0
lthumb 8.6342 57.7624 -0.0100273
rclavicle 7.66811e-15 -1.41535e-14 -7.1648e-31
rhumerus -40.3576 -15.3257 -71.9993
rradius 34.4735 0 0
rwrist 6.9254 0 0
rhand -15.4089 12.4916 0.0040646
rfingers 7.12502 0 0
rthumb 10.7703 -17.2118 0.00399943
97
root -3.24325 16.9553 -11.3717 0.494634 -6.26371 0.189908
lfemur -10.6739 -7.16937 -22.3449
ltibia 46.8903 0 0
lfoot 4.98941 -0.640334 -1.03722
ltoes 5.99357 0 0
rfemur -15.1183 10.3421 18.2943
rtibia 23.8161 0 0
rfoot -7.79359 5.06347 0.155648
rtoes -7.42377 0 0
lowerback 8.01561 -0.993709 0.108425
upperback 0.367105 -1.18096 3.05127
thorax -3.97166 -0.567592 3.27881
lowerneck -16.2205 -2.33656 -9.13695
upperneck 22.5129 -1.51452 2.84539
head 9.95419 -1.15031 2.32576
lclavicle 2.91766e-14 -9.30312e-15 9.04783e-30
lhumerus -29.3848 11.3199 83.0816
lradius 34.5591 0 0
lwrist -1.17075 0 0
lhand -18.8468 25.082 0.00204693
lfingers 7.12502 0 0
lthumb 7.45285 54.9263 0.00138429
rclavicle 2.91766e-14 -9.30312e-15 9.04783e-30
rhumerus -40.0647 -15.0363 -72.2776
rradius 34.6347 0 0
rwrist 6.60542 0 0
rhand -15.4255 11.428 0.00180322
rfingers 7.12502 0 0
rthumb 10.7544 -18.2762 0.00183691
98
root -3.2518 16.9763 -11.147 0.584637 -5.70954 -0.452847
lfemur -11.952 -6.88054 -21.211
ltibia 48.4041 0 0
lfoot 3.57752 1.30102 -0.982229
ltoes 2.67937 0 0
rfemur -14.0136 10.1067 19.0059
rtibia 23.6209 0 0
rfoot -7.99306 4.21662 0.109316
rtoes -8.26831 0 0
lowerback 6.6102 -0.959866 0.664238
upperback 1.37254 -1.13461 3.30017
thorax -2.14589 -0.577119 3.1242
lowerneck -16.4276 -2.51402 -9.22004
upperneck 21.601 -1.75959 3.02344
head 9.6865 -1.22715 2.35842
lclavicle 3.56818e-14 4.6118e-15 -6.16982e-31
lhumerus -27.7195 11.1123 83.6807
lradius 34.0928 0 0
lwrist -1.58525 0 0
lhand -18.5239 25.3836 0.00717594
lfingers 7.12502 0 0
lthumb 7.76455 55.2177 0.00645848
rclavicle 3.56818e-14 4.6118e-15 -6.16982e-31
rhumerus -38.3269 -15.8683 -72.5303
rradius 34.3933 0 0
rwrist 6.66934 0 0
rhand -15.5645 11.4842 -6.55788e-05
rfingers 7.12502 0 0
rthumb 10.6203 -18.2273 -4.24561e-05
99
root -3.26544 16.9992 -10.9187 0.639624 -5.0788 -1.06048
lfemur -13.2804 -6.29462 -20.2154
ltibia 49.8128 0 0
lfoot 0.723746 4.10326 -0.753736
ltoes -6.43171 0 0
rfemur -12.8162 9.74159 19.6466
rtibia 23.2591 0 0
rfoot -8.26751 3.83986 0.0801905
rtoes -7.62614 0 0
lowerback 7.96688 -1.07425 1.23882
upperback 0.371431 -1.16614 3.51028
thorax -3.95261 -0.577139 3.11549
lowerneck -15.841 -2.43738 -9.2934
upperneck 22.4416 -1.67478 2.94141
head 9.87039 -1.22383 2.3658
lclavicle -3.98712e-14 -2.51264e-14 -6.17847e-31
lhumerus -29.42 10.8642 83.678
lradius 33.9814 0 0
lwrist -2.11605 0 0
lhand -17.4113 26.8307 -0.000333893
lfingers 7.12502 0 0
lthumb 8.83842 56.6254 -0.000356177
rclavicle -3.98712e-14 -2.51264e-14 -6.17847e-31
rhumerus -39.6693 -15.1683 -72.1233
rradius 34.4708 0 0
rwrist 6.49063 0 0
rhand -15.6487 11.7748 2.41067e-06
rfingers 7.12502 0 0
rthumb 10.5391 -17.941 2.60104e-06
100
root -3.28203 17.0237 -10.6862 0.623152 -4.48304 -1.5536
lfemur -14.6458 -5.39074 -19.5093
ltibia 51.0814 0 0
lfoot -1.03992 5.94542 -0.622473
ltoes -9.46448 0 0
rfemur -11.3532 9.30125 20.2112
rtibia 22.3709 0 0
rfoot -8.31613 3.96262 0.0556842
rtoes -6.5889 0 0
lowerback 7.80857 -1.09726 1.62265
upperback 0.391887 -1.16197 3.66931
thorax -3.851 -0.580167 3.05926
lowerneck -15.7399 -2.49976 -9.32789
upperneck 22.5237 -1.76624 2.96134
head 9.88658 -1.26774 2.36801
lclavicle -2.99519e-14 1.94809e-14 -7.20541e-32
lhumerus -29.5012 10.6448 83.9479
lradius 33.6734 0 0
lwrist -2.67699 0 0
lhand -16.9626 27.1931 -0.000361639
lfingers 7.12502 0 0
lthumb 9.27142 56.9691 -0.000369235
rclavicle -2.99519e-14 1.94809e-14 -7.20541e-32
rhumerus -39.4512 -15.1782 -72.1352
rradius 34.2932 0 0
rwrist 6.45924 0 0
rhand -15.4455 11.2671 -5.95669e-05
rfingers 7.12502 0 0
rthumb 10.7351 -18.4386 -5.63828e-05
101
root -3.2979 17.0438 -10.4601 0.564012 -4.00756 -1.99572
lfemur -15.8609 -4.42305 -18.8981
ltibia 52.0945 0 0
lfoot -1.95227 6.4556 -0.561928
ltoes -6.483 0 0
rfemur -9.40351 9.0332 20.7568
rtibia 20.6331 0 0
rfoot -7.75303 3.89319 0.0192416
rtoes -6.43357 0 0
lowerback 7.94265 -1.04893 1.87889
upperback 0.361105 -1.06093 3.83782
thorax -3.95868 -0.532404 3.08373
lowerneck -15.5829 -2.57827 -9.1611
upperneck 22.5897 -1.89882 2.80414
head 9.88626 -1.33156 2.26852
lclavicle 1.53561e-14 -2.66372e-14 1.06487e-29
lhumerus -29.6201 10.4635 84.2466
lradius 33.3135 0 0
lwrist -3.35575 0 0
lhand -16.3828 27.5688 0.000958767
lfingers 7.12502 0 0
lthumb 9.83077 57.3185 0.000782668
rclavicle 1.53561e-14 -2.66372e-14 1.06487e-29
rhumerus -39.3243 -15.1002 -72.1196
rradius 34.1021 0 0
rwrist 6.3088 0 0
rhand -15.5277 11.2431 0.000341748
rfingers 7.12502 0 0
rthumb 10.6558 -18.4666 0.000340811
102
root -3.32305 17.0723 -10.21 0.402744 -3.60903 -2.16552
lfemur -16.7549 -3.76139 -18.6831
ltibia 52.8616 0 0
lfoot -2.80805 6.46049 -0.583512
ltoes -4.02476 0 0
rfemur -8.11293 8.79343 20.9434
rtibia 20.4529 0 0
rfoot -8.08376 3.36128 0.00943021
rtoes -6.10054 0 0
lowerback 7.80653 -0.935383 1.97677
upperback 0.328896 -0.899942 3.90635
thorax -3.93637 -0.452754 3.09479
lowerneck -15.2346 -2.74056 -9.01228
upperneck 22.6129 -2.15032 2.60234
head 9.84253 -1.45827 2.14298
lclavicle 1.91281e-14 -1.15295e-14 3.43142e-30
lhumerus -29.7992 10.1102 84.6243
lradius 32.8329 0 0
lwrist -3.85459 0 0
lhand -16.2017 27.4327 0.00179957
lfingers 7.12502 0 0
lthumb 10.0055 57.1743 0.00164063
rclavicle 1.91281e-14 -1.15295e-14 3.43142e-30
rhumerus -39.3706 -15.0036 -72.1031
rradius 33.9692 0 0
rwrist 6.23383 0 0
rhand -15.9118 11.3566 0.000418026
rfingers 7.12502 0 0
rthumb 10.2852 -18.3716 0.000459944
103
root -3.33926 17.0911 -9.98808 0.410424 -2.97258 -2.48405
lfemur -17.9361 -2.57596 -18.4639
ltibia 53.4809 0 0
lfoot -3.41831 5.42425 -0.465147
ltoes -0.753014 0 0
rfemur -7.0306 8.65053 21.3188
rtibia 20.2801 0 0
rfoot -8.44725 2.94973 0.00201766
rtoes -5.05873 0 0
lowerback 8.02937 -0.87734 2.04848
upperback 0.197733 -0.793988 4.06305
thorax -4.20825 -0.39809 3.20635
lowerneck -15.0481 -2.83092 -8.89627
upperneck 22.6647 -2.28322 2.44143
head 9.83157 -1.52911 2.05161
lclavicle -2.43113e-14 2.77503e-14 1.71712e-30
lhumerus -29.8998 9.75813 85.0013
lradius 32.3068 0 0
lwrist -4.3661 0 0
lhand -15.8716 27.6318 0.000848608
lfingers 7.12502 0 0
lthumb 10.3241 57.3581 0.000763277
rclavicle -2.43113e-14 2.77503e-14 1.71712e-30
rhumerus -39.2799 -15.054 -72.0681
rradius 33.8632 0 0
rwrist 6.32607 0 0
rhand -15.8428 10.2535 0.000805146
rfingers 7.12502 0 0
rthumb 10.3518 -19.4717 0.000783653
104
root -3.35652 17.1053 -9.77155 0.481092 -2.10454 -2.81314
lfemur -19.2635 -1.08429 -18.3799
ltibia 53.9977 0 0
lfoot -3.67277 4.44328 -0.287011
ltoes -0.446879 0 0
rfemur -5.99374 8.49553 21.7296
rtibia 20.1498 0 0
rfoot -8.85216 2.51727 -0.00051712
rtoes -6.0839 0 0
lowerback 8.21418 -0.914941 2.03184
upperback 0.0388416 -0.822627 4.26454
thorax -4.47322 -0.407954 3.42207
lowerneck -14.9312 -2.8614 -8.8564
upperneck 22.8731 -2.3177 2.32509
head 9.88526 -1.55827 2.00138
lclavicle -5.3329e-14 3.25212e-14 4.49202e-30
lhumerus -30.1992 9.64332 85.2768
lradius 32.0475 0 0
lwrist -5.2238 0 0
lhand -14.9698 28.2009 0.00368221
lfingers 7.12502 0 0
lthumb 11.1938 57.8808 0.0032696
rclavicle -5.3329e-14 3.25212e-14 4.49202e-30
rhumerus -39.227 -14.8877 -72.0571
rradius 33.9278 0 0
rwrist 6.48215 0 0
rhand -15.6366 8.94274 -0.0007536
rfingers 7.12502 0 0
rthumb 10.5507 -20.7724 -0.000725313
105
root -3.38193 17.1134 -9.54764 0.355119 -1.18306 -3.19861
lfemur -20.3912 -0.00600147 -18.1422
ltibia 54.4523 0 0
lfoot -4.32727 3.56392 -0.184138
ltoes -0.60751 0 0
rfemur -5.12577 8.20175 22.244
rtibia 20.7688 0 0
rfoot -9.46415 1.83217 -0.000368472
rtoes -6.76165 0 0
lowerback 8.23215 -1.04817 2.19259
upperback 0.032593 -0.973261 4.45331
thorax -4.48119 -0.48348 3.5464
lowerneck -14.8692 -2.84956 -8.86051
upperneck 23.017 -2.28696 2.25199
head 9.92334 -1.5553 1.98136
lclavicle -1.6032e-14 3.16465e-14 -4.8307e-30
lhumerus -30.5378 9.48945 85.5343
lradius 31.9675 0 0
lwrist -5.76085 0 0
lhand -14.7645 27.4594 0.0044815
lfingers 7.12502 0 0
lthumb 11.3919 57.1292 0.00420402
rclavicle -1.6032e-14 3.16465e-14 -4.8307e-30
rhumerus -38.9903 -14.7867 -72.1125
rradius 33.8512 0 0
rwrist 6.75759 0 0
rhand -15.8137 8.96894 0.00301736
rfingers 7.12502 0 0
rthumb 10.3799 -20.7548 0.00292865
106
root -3.40456 17.1202 -9.31806 0.152565 -0.330707 -3.38834
lfemur -21.3792 0.556129 -18.0838
ltibia 54.8515 0 0
lfoot -5.59148 2.85132 -0.138385
ltoes -0.42743 0 0
rfemur -4.33053 7.78605 22.4927
rtibia 21.6461 0 0
rfoot -10.0244 1.40872 0.00334513
rtoes -5.93773 0 0
lowerback 8.24381 -1.18181 2.32605
upperback 0.0444897 -1.13224 4.5238
thorax -4.46654 -0.56399 3.57412
lowerneck -14.7019 -2.79728 -8.81298
upperneck 23.006 -2.23273 2.21234
head 9.88453 -1.5294 1.96755
lclavicle 1.487e-17 -2.49674e-14 3.72854e-30
lhumerus -30.8128 9.45902 85.7048
lradius 31.6064 0 0
lwrist -6.16339 0 0
lhand -15.1294 26.7241 -0.000786467
lfingers 7.12502 0 0
lthumb 11.0399 56.4138 -0.000762075
rclavicle 1.487e-17 -2.49674e-14 3.72854e-30
rhumerus -38.7615 -14.7158 -72.2076
rradius 33.6814 0 0
rwrist 6.88053 0 0
rhand -16.1301 9.64046 0.00749898
rfingers 7.12502 0 0
rthumb 10.0746 -20.0976 0.00736516
107
root -3.42041 17.1389 -9.08139 0.067268 0.512143 -3.49095
lfemur -22.4083 0.933239 -18.1835
ltibia 55.1544 0 0
lfoot -6.37403 2.02696 -0.0703987
ltoes 2.11412 0 0
rfemur -3.55622 7.50651 22.564
rtibia 22.211 0 0
rfoot -10.139 1.2324 0.0139041
rtoes -6.15439 0 0
lowerback 8.08035 -1.26218 2.44215
upperback -0.025787 -1.23466 4.47463
thorax -4.45068 -0.616608 3.47438
lowerneck -14.5369 -2.76812 -8.6104
upperneck 23.1986 -2.24938 2.16868
head 9.91945 -1.52581 1.91919
lclavicle -1.67873e-14 -1.27221e-15 -4.00111e-30
lhumerus -31.1341 9.37074 85.7648
lradius 31.0314 0 0
lwrist -6.64812 0 0
lhand -14.9769 26.6108 0.00646676
lfingers 7.12502 0 0
lthumb 11.187 56.2917 0.006085
rclavicle -1.67873e-14 -1.27221e-15 -4.00111e-30
rhumerus -38.8204 -14.8456 -72.2875
rradius 33.5789 0 0
rwrist 7.26444 0 0
rhand -16.2269 10.0442 0.00703355
rfingers 7.12502 0 0
rthumb 9.98114 -19.6983 0.00692835
